<svg xmlns="http://www.w3.org/2000/svg" viewBox="0 0 128 128"><rect width="128" height="128" rx="28" fill="#0d0f12"/><g fill="none" stroke="#e0d4c0" stroke-width="5" stroke-linecap="round"><path d="M48 82 Q26 66 13 58"/><path d="M47 87 Q22 82 9 84"/><path d="M49 92 Q24 100 14 110"/><path d="M52 96 Q32 112 24 122"/><path d="M80 82 Q102 66 115 58"/><path d="M81 87 Q106 82 119 84"/><path d="M79 92 Q104 100 114 110"/><path d="M76 96 Q96 112 104 122"/></g><ellipse cx="64" cy="60" rx="41" ry="37" fill="#ece6da"/><ellipse cx="64" cy="50" rx="32" ry="22" fill="#f5f1e9"/><ellipse cx="64" cy="86" rx="30" ry="14" fill="#ddd2c0" opacity="0.7"/><g><circle cx="52" cy="74" r="13.5" fill="#241710"/><circle cx="76" cy="74" r="13.5" fill="#241710"/><circle cx="52" cy="74" r="9.5" fill="#d98a45"/><circle cx="76" cy="74" r="9.5" fill="#d98a45"/><circle cx="52" cy="75" r="5" fill="#19110a"/><circle cx="76" cy="75" r="5" fill="#19110a"/><circle cx="49" cy="70.5" r="2.4" fill="#fff"/><circle cx="73" cy="70.5" r="2.4" fill="#fff"/></g></svg>